<mxfile host="app.diagrams.net" modified="2022-05-05T05:54:45.090Z" agent="5.0 (Macintosh; Intel Mac OS X 10_15_7) AppleWebKit/537.36 (KHTML, like Gecko) Chrome/100.0.4896.127 Safari/537.36" etag="goymD_h0CIXgTkCIPp3A" version="18.0.0" type="github">
  <diagram id="flCtdQYa254VvUrrgfkG" name="Page-1">
    <mxGraphModel dx="631" dy="431" grid="1" gridSize="10" guides="1" tooltips="1" connect="1" arrows="1" fold="1" page="1" pageScale="1" pageWidth="827" pageHeight="1169" math="0" shadow="0">
      <root>
        <mxCell id="0" />
        <mxCell id="1" parent="0" />
        <mxCell id="gVXa1u4D3wWHI7BnuCao-66" value="" style="line;strokeWidth=2;html=1;fillColor=#dae8fc;strokeColor=#6c8ebf;" vertex="1" parent="1">
          <mxGeometry x="280" y="445" width="20" height="10" as="geometry" />
        </mxCell>
        <mxCell id="gVXa1u4D3wWHI7BnuCao-56" value="" style="line;strokeWidth=2;html=1;fillColor=#dae8fc;strokeColor=#6c8ebf;" vertex="1" parent="1">
          <mxGeometry x="240" y="445" width="40" height="10" as="geometry" />
        </mxCell>
        <mxCell id="gVXa1u4D3wWHI7BnuCao-58" value="" style="shape=waypoint;sketch=0;fillStyle=solid;size=6;pointerEvents=1;points=[];fillColor=#f8cecc;resizable=0;rotatable=0;perimeter=centerPerimeter;snapToPoint=1;strokeColor=#b85450;" vertex="1" parent="1">
          <mxGeometry x="260" y="430" width="40" height="40" as="geometry" />
        </mxCell>
        <mxCell id="gVXa1u4D3wWHI7BnuCao-90" value="" style="line;strokeWidth=2;html=1;fillColor=#fff2cc;strokeColor=#d6b656;" vertex="1" parent="1">
          <mxGeometry x="200" y="395" width="40" height="10" as="geometry" />
        </mxCell>
        <mxCell id="gVXa1u4D3wWHI7BnuCao-88" style="edgeStyle=orthogonalEdgeStyle;curved=1;rounded=0;orthogonalLoop=1;jettySize=auto;html=1;startArrow=none;startFill=0;endArrow=classic;endFill=1;strokeWidth=2;" edge="1" parent="1" source="gVXa1u4D3wWHI7BnuCao-87" target="gVXa1u4D3wWHI7BnuCao-42">
          <mxGeometry relative="1" as="geometry" />
        </mxCell>
        <mxCell id="gVXa1u4D3wWHI7BnuCao-84" value="" style="line;strokeWidth=2;html=1;fillColor=#fff2cc;strokeColor=#d6b656;" vertex="1" parent="1">
          <mxGeometry x="200" y="275" width="40" height="10" as="geometry" />
        </mxCell>
        <mxCell id="gVXa1u4D3wWHI7BnuCao-77" value="" style="line;strokeWidth=2;html=1;fillColor=#fff2cc;strokeColor=#d6b656;" vertex="1" parent="1">
          <mxGeometry x="200" y="315" width="40" height="10" as="geometry" />
        </mxCell>
        <mxCell id="gVXa1u4D3wWHI7BnuCao-73" style="edgeStyle=orthogonalEdgeStyle;curved=1;rounded=0;orthogonalLoop=1;jettySize=auto;html=1;startArrow=none;startFill=0;endArrow=classic;endFill=1;strokeWidth=2;" edge="1" parent="1" source="gVXa1u4D3wWHI7BnuCao-72" target="gVXa1u4D3wWHI7BnuCao-4">
          <mxGeometry relative="1" as="geometry" />
        </mxCell>
        <mxCell id="gVXa1u4D3wWHI7BnuCao-82" style="edgeStyle=orthogonalEdgeStyle;curved=1;rounded=0;orthogonalLoop=1;jettySize=auto;html=1;startArrow=none;startFill=0;endArrow=classic;endFill=1;strokeWidth=2;" edge="1" parent="1" source="gVXa1u4D3wWHI7BnuCao-80" target="gVXa1u4D3wWHI7BnuCao-1">
          <mxGeometry relative="1" as="geometry" />
        </mxCell>
        <mxCell id="gVXa1u4D3wWHI7BnuCao-74" value="" style="line;strokeWidth=2;html=1;fillColor=#fff2cc;strokeColor=#d6b656;" vertex="1" parent="1">
          <mxGeometry x="160" y="355" width="40" height="10" as="geometry" />
        </mxCell>
        <mxCell id="gVXa1u4D3wWHI7BnuCao-71" value="" style="line;strokeWidth=2;html=1;fillColor=#fff2cc;strokeColor=#d6b656;" vertex="1" parent="1">
          <mxGeometry x="200" y="355" width="40" height="10" as="geometry" />
        </mxCell>
        <mxCell id="gVXa1u4D3wWHI7BnuCao-60" value="" style="line;strokeWidth=2;direction=south;html=1;fillColor=#d5e8d4;strokeColor=#82b366;" vertex="1" parent="1">
          <mxGeometry x="235" y="440" width="10" height="40" as="geometry" />
        </mxCell>
        <mxCell id="gVXa1u4D3wWHI7BnuCao-53" value="" style="line;strokeWidth=2;direction=south;html=1;fillColor=#fff2cc;strokeColor=#d6b656;" vertex="1" parent="1">
          <mxGeometry x="355" y="400" width="10" height="40" as="geometry" />
        </mxCell>
        <mxCell id="gVXa1u4D3wWHI7BnuCao-47" style="edgeStyle=orthogonalEdgeStyle;curved=1;rounded=0;orthogonalLoop=1;jettySize=auto;html=1;entryX=0.25;entryY=0.25;entryDx=0;entryDy=0;entryPerimeter=0;endArrow=none;endFill=0;strokeWidth=2;fillColor=#fff2cc;strokeColor=#d6b656;" edge="1" parent="1" source="gVXa1u4D3wWHI7BnuCao-45" target="gVXa1u4D3wWHI7BnuCao-46">
          <mxGeometry relative="1" as="geometry" />
        </mxCell>
        <mxCell id="gVXa1u4D3wWHI7BnuCao-43" value="" style="line;strokeWidth=2;direction=south;html=1;fillColor=#d5e8d4;strokeColor=#82b366;" vertex="1" parent="1">
          <mxGeometry x="235" y="240" width="10" height="40" as="geometry" />
        </mxCell>
        <mxCell id="gVXa1u4D3wWHI7BnuCao-39" value="" style="line;strokeWidth=2;html=1;fillColor=#dae8fc;strokeColor=#6c8ebf;" vertex="1" parent="1">
          <mxGeometry x="320" y="355" width="40" height="10" as="geometry" />
        </mxCell>
        <mxCell id="gVXa1u4D3wWHI7BnuCao-37" value="" style="line;strokeWidth=2;html=1;fillColor=#dae8fc;strokeColor=#6c8ebf;" vertex="1" parent="1">
          <mxGeometry x="280" y="355" width="40" height="10" as="geometry" />
        </mxCell>
        <mxCell id="gVXa1u4D3wWHI7BnuCao-31" value="" style="line;strokeWidth=2;html=1;fillColor=#dae8fc;strokeColor=#6c8ebf;" vertex="1" parent="1">
          <mxGeometry x="240" y="355" width="40" height="10" as="geometry" />
        </mxCell>
        <mxCell id="gVXa1u4D3wWHI7BnuCao-22" style="edgeStyle=orthogonalEdgeStyle;curved=1;rounded=0;orthogonalLoop=1;jettySize=auto;html=1;endArrow=classic;endFill=1;strokeWidth=2;" edge="1" parent="1" source="gVXa1u4D3wWHI7BnuCao-19" target="gVXa1u4D3wWHI7BnuCao-6">
          <mxGeometry relative="1" as="geometry" />
        </mxCell>
        <mxCell id="gVXa1u4D3wWHI7BnuCao-23" value="" style="line;strokeWidth=2;html=1;fillColor=#fff2cc;strokeColor=#d6b656;" vertex="1" parent="1">
          <mxGeometry x="160" y="395" width="40" height="10" as="geometry" />
        </mxCell>
        <mxCell id="gVXa1u4D3wWHI7BnuCao-9" value="" style="line;strokeWidth=2;direction=south;html=1;fillColor=#d5e8d4;strokeColor=#82b366;" vertex="1" parent="1">
          <mxGeometry x="235" y="400" width="10" height="40" as="geometry" />
        </mxCell>
        <mxCell id="gVXa1u4D3wWHI7BnuCao-7" value="" style="line;strokeWidth=2;direction=south;html=1;fillColor=#d5e8d4;strokeColor=#82b366;" vertex="1" parent="1">
          <mxGeometry x="235" y="360" width="10" height="40" as="geometry" />
        </mxCell>
        <mxCell id="gVXa1u4D3wWHI7BnuCao-5" value="" style="line;strokeWidth=2;direction=south;html=1;fillColor=#d5e8d4;strokeColor=#82b366;" vertex="1" parent="1">
          <mxGeometry x="235" y="320" width="10" height="40" as="geometry" />
        </mxCell>
        <mxCell id="gVXa1u4D3wWHI7BnuCao-3" value="" style="line;strokeWidth=2;direction=south;html=1;fillColor=#d5e8d4;strokeColor=#82b366;" vertex="1" parent="1">
          <mxGeometry x="235" y="280" width="10" height="40" as="geometry" />
        </mxCell>
        <mxCell id="gVXa1u4D3wWHI7BnuCao-41" style="edgeStyle=orthogonalEdgeStyle;curved=1;rounded=0;orthogonalLoop=1;jettySize=auto;html=1;entryX=0.5;entryY=0.5;entryDx=0;entryDy=0;entryPerimeter=0;endArrow=classic;endFill=1;strokeWidth=2;dashed=1;" edge="1" parent="1" source="gVXa1u4D3wWHI7BnuCao-1">
          <mxGeometry relative="1" as="geometry">
            <mxPoint x="320" y="360" as="targetPoint" />
          </mxGeometry>
        </mxCell>
        <mxCell id="gVXa1u4D3wWHI7BnuCao-1" value="" style="shape=waypoint;sketch=0;fillStyle=solid;size=6;pointerEvents=1;points=[];fillColor=#d5e8d4;resizable=0;rotatable=0;perimeter=centerPerimeter;snapToPoint=1;strokeColor=#82b366;" vertex="1" parent="1">
          <mxGeometry x="220" y="260" width="40" height="40" as="geometry" />
        </mxCell>
        <mxCell id="gVXa1u4D3wWHI7BnuCao-34" style="edgeStyle=orthogonalEdgeStyle;curved=1;rounded=0;orthogonalLoop=1;jettySize=auto;html=1;entryX=0.442;entryY=0.43;entryDx=0;entryDy=0;entryPerimeter=0;endArrow=classic;endFill=1;strokeWidth=2;startArrow=none;startFill=0;" edge="1" parent="1" source="gVXa1u4D3wWHI7BnuCao-4">
          <mxGeometry relative="1" as="geometry">
            <mxPoint x="280" y="360" as="targetPoint" />
          </mxGeometry>
        </mxCell>
        <mxCell id="gVXa1u4D3wWHI7BnuCao-4" value="" style="shape=waypoint;sketch=0;fillStyle=solid;size=6;pointerEvents=1;points=[];fillColor=#f8cecc;resizable=0;rotatable=0;perimeter=centerPerimeter;snapToPoint=1;strokeColor=#b85450;" vertex="1" parent="1">
          <mxGeometry x="220" y="300" width="40" height="40" as="geometry" />
        </mxCell>
        <mxCell id="gVXa1u4D3wWHI7BnuCao-6" value="" style="shape=waypoint;sketch=0;fillStyle=solid;size=6;pointerEvents=1;points=[];fillColor=#d5e8d4;resizable=0;rotatable=0;perimeter=centerPerimeter;snapToPoint=1;strokeColor=#82b366;" vertex="1" parent="1">
          <mxGeometry x="220" y="340" width="40" height="40" as="geometry" />
        </mxCell>
        <mxCell id="gVXa1u4D3wWHI7BnuCao-19" value="" style="shape=waypoint;sketch=0;fillStyle=solid;size=6;pointerEvents=1;points=[];fillColor=#d5e8d4;resizable=0;rotatable=0;perimeter=centerPerimeter;snapToPoint=1;strokeColor=#82b366;dashed=1;" vertex="1" parent="1">
          <mxGeometry x="180" y="380" width="40" height="40" as="geometry" />
        </mxCell>
        <mxCell id="gVXa1u4D3wWHI7BnuCao-24" value="" style="shape=image;html=1;verticalAlign=top;verticalLabelPosition=bottom;labelBackgroundColor=#ffffff;imageAspect=0;aspect=fixed;image=https://cdn0.iconfinder.com/data/icons/google-material-design-3-0/48/ic_delete_sweep_48px-128.png;imageBackground=none;" vertex="1" parent="1">
          <mxGeometry x="135" y="387.5" width="25" height="25" as="geometry" />
        </mxCell>
        <mxCell id="gVXa1u4D3wWHI7BnuCao-25" value="dev" style="text;html=1;align=center;verticalAlign=middle;resizable=0;points=[];autosize=1;strokeColor=none;fillColor=none;rotation=0;" vertex="1" parent="1">
          <mxGeometry x="160" y="380" width="40" height="20" as="geometry" />
        </mxCell>
        <mxCell id="gVXa1u4D3wWHI7BnuCao-26" value="master" style="text;html=1;align=center;verticalAlign=middle;resizable=0;points=[];autosize=1;strokeColor=none;fillColor=none;" vertex="1" parent="1">
          <mxGeometry x="215" y="210" width="50" height="20" as="geometry" />
        </mxCell>
        <mxCell id="gVXa1u4D3wWHI7BnuCao-27" value="" style="shape=waypoint;sketch=0;fillStyle=solid;size=6;pointerEvents=1;points=[];fillColor=#f8cecc;resizable=0;rotatable=0;perimeter=centerPerimeter;snapToPoint=1;strokeColor=#b85450;" vertex="1" parent="1">
          <mxGeometry x="220" y="420" width="40" height="40" as="geometry" />
        </mxCell>
        <mxCell id="gVXa1u4D3wWHI7BnuCao-28" value="" style="shape=waypoint;sketch=0;fillStyle=solid;size=6;pointerEvents=1;points=[];fillColor=#d5e8d4;resizable=0;rotatable=0;perimeter=centerPerimeter;snapToPoint=1;strokeColor=#82b366;" vertex="1" parent="1">
          <mxGeometry x="220" y="430" width="40" height="40" as="geometry" />
        </mxCell>
        <mxCell id="gVXa1u4D3wWHI7BnuCao-29" value="" style="shape=waypoint;sketch=0;fillStyle=solid;size=6;pointerEvents=1;points=[];fillColor=#f8cecc;resizable=0;rotatable=0;perimeter=centerPerimeter;snapToPoint=1;strokeColor=#b85450;" vertex="1" parent="1">
          <mxGeometry x="220" y="440" width="40" height="40" as="geometry" />
        </mxCell>
        <mxCell id="gVXa1u4D3wWHI7BnuCao-30" value="" style="shape=waypoint;sketch=0;fillStyle=solid;size=6;pointerEvents=1;points=[];fillColor=#f8cecc;resizable=0;rotatable=0;perimeter=centerPerimeter;snapToPoint=1;strokeColor=#b85450;" vertex="1" parent="1">
          <mxGeometry x="220" y="450" width="40" height="40" as="geometry" />
        </mxCell>
        <mxCell id="gVXa1u4D3wWHI7BnuCao-32" value="release" style="text;html=1;align=center;verticalAlign=middle;resizable=0;points=[];autosize=1;strokeColor=none;fillColor=none;" vertex="1" parent="1">
          <mxGeometry x="345" y="340" width="60" height="20" as="geometry" />
        </mxCell>
        <mxCell id="gVXa1u4D3wWHI7BnuCao-40" value="tag" style="text;html=1;align=center;verticalAlign=middle;resizable=0;points=[];autosize=1;strokeColor=none;fillColor=none;" vertex="1" parent="1">
          <mxGeometry x="320" y="360" width="30" height="20" as="geometry" />
        </mxCell>
        <mxCell id="gVXa1u4D3wWHI7BnuCao-42" value="" style="shape=waypoint;sketch=0;fillStyle=solid;size=6;pointerEvents=1;points=[];fillColor=#d5e8d4;resizable=0;rotatable=0;perimeter=centerPerimeter;snapToPoint=1;strokeColor=#82b366;" vertex="1" parent="1">
          <mxGeometry x="220" y="220" width="40" height="40" as="geometry" />
        </mxCell>
        <mxCell id="gVXa1u4D3wWHI7BnuCao-92" style="edgeStyle=orthogonalEdgeStyle;curved=1;rounded=0;orthogonalLoop=1;jettySize=auto;html=1;startArrow=none;startFill=0;endArrow=classic;endFill=1;strokeWidth=2;dashed=1;" edge="1" parent="1" source="gVXa1u4D3wWHI7BnuCao-44" target="gVXa1u4D3wWHI7BnuCao-67">
          <mxGeometry relative="1" as="geometry" />
        </mxCell>
        <mxCell id="gVXa1u4D3wWHI7BnuCao-44" value="" style="shape=waypoint;sketch=0;fillStyle=solid;size=6;pointerEvents=1;points=[];fillColor=#f8cecc;resizable=0;rotatable=0;perimeter=centerPerimeter;snapToPoint=1;strokeColor=#b85450;" vertex="1" parent="1">
          <mxGeometry x="260" y="340" width="40" height="40" as="geometry" />
        </mxCell>
        <mxCell id="gVXa1u4D3wWHI7BnuCao-50" style="edgeStyle=orthogonalEdgeStyle;curved=1;rounded=0;orthogonalLoop=1;jettySize=auto;html=1;entryX=0.56;entryY=0.505;entryDx=0;entryDy=0;entryPerimeter=0;endArrow=classic;endFill=1;strokeWidth=2;" edge="1" parent="1" source="gVXa1u4D3wWHI7BnuCao-46">
          <mxGeometry relative="1" as="geometry">
            <mxPoint x="399.9999999999999" y="360" as="targetPoint" />
          </mxGeometry>
        </mxCell>
        <mxCell id="gVXa1u4D3wWHI7BnuCao-46" value="" style="shape=waypoint;sketch=0;fillStyle=solid;size=6;pointerEvents=1;points=[];fillColor=#f8cecc;resizable=0;rotatable=0;perimeter=centerPerimeter;snapToPoint=1;strokeColor=#b85450;" vertex="1" parent="1">
          <mxGeometry x="340" y="380" width="40" height="40" as="geometry" />
        </mxCell>
        <mxCell id="gVXa1u4D3wWHI7BnuCao-45" value="" style="shape=waypoint;sketch=0;fillStyle=solid;size=6;pointerEvents=1;points=[];fillColor=#d5e8d4;resizable=0;rotatable=0;perimeter=centerPerimeter;snapToPoint=1;strokeColor=#82b366;" vertex="1" parent="1">
          <mxGeometry x="300" y="340" width="40" height="40" as="geometry" />
        </mxCell>
        <mxCell id="gVXa1u4D3wWHI7BnuCao-49" value="" style="line;strokeWidth=2;html=1;fillColor=#dae8fc;strokeColor=#6c8ebf;" vertex="1" parent="1">
          <mxGeometry x="360" y="355" width="40" height="10" as="geometry" />
        </mxCell>
        <mxCell id="gVXa1u4D3wWHI7BnuCao-51" value="" style="shape=waypoint;sketch=0;fillStyle=solid;size=6;pointerEvents=1;points=[];fillColor=#f8cecc;resizable=0;rotatable=0;perimeter=centerPerimeter;snapToPoint=1;strokeColor=#b85450;" vertex="1" parent="1">
          <mxGeometry x="380" y="340" width="40" height="40" as="geometry" />
        </mxCell>
        <mxCell id="gVXa1u4D3wWHI7BnuCao-54" value="" style="shape=image;html=1;verticalAlign=top;verticalLabelPosition=bottom;labelBackgroundColor=#ffffff;imageAspect=0;aspect=fixed;image=https://cdn0.iconfinder.com/data/icons/google-material-design-3-0/48/ic_delete_sweep_48px-128.png;imageBackground=none;" vertex="1" parent="1">
          <mxGeometry x="350" y="440" width="25" height="25" as="geometry" />
        </mxCell>
        <mxCell id="gVXa1u4D3wWHI7BnuCao-55" value="dev" style="text;html=1;align=center;verticalAlign=middle;resizable=0;points=[];autosize=1;strokeColor=none;fillColor=none;rotation=0;" vertex="1" parent="1">
          <mxGeometry x="355" y="412.5" width="40" height="20" as="geometry" />
        </mxCell>
        <mxCell id="gVXa1u4D3wWHI7BnuCao-59" value="" style="shape=waypoint;sketch=0;fillStyle=solid;size=6;pointerEvents=1;points=[];fillColor=#f8cecc;resizable=0;rotatable=0;perimeter=centerPerimeter;snapToPoint=1;strokeColor=#b85450;" vertex="1" parent="1">
          <mxGeometry x="220" y="460" width="40" height="40" as="geometry" />
        </mxCell>
        <mxCell id="gVXa1u4D3wWHI7BnuCao-61" value="" style="shape=waypoint;sketch=0;fillStyle=solid;size=6;pointerEvents=1;points=[];fillColor=#f8cecc;resizable=0;rotatable=0;perimeter=centerPerimeter;snapToPoint=1;strokeColor=#b85450;" vertex="1" parent="1">
          <mxGeometry x="250" y="430" width="40" height="40" as="geometry" />
        </mxCell>
        <mxCell id="gVXa1u4D3wWHI7BnuCao-62" value="" style="shape=waypoint;sketch=0;fillStyle=solid;size=6;pointerEvents=1;points=[];fillColor=#f8cecc;resizable=0;rotatable=0;perimeter=centerPerimeter;snapToPoint=1;strokeColor=#b85450;" vertex="1" parent="1">
          <mxGeometry x="240" y="430" width="40" height="40" as="geometry" />
        </mxCell>
        <mxCell id="gVXa1u4D3wWHI7BnuCao-63" value="" style="shape=waypoint;sketch=0;fillStyle=solid;size=6;pointerEvents=1;points=[];fillColor=#d5e8d4;resizable=0;rotatable=0;perimeter=centerPerimeter;snapToPoint=1;strokeColor=#82b366;" vertex="1" parent="1">
          <mxGeometry x="230" y="430" width="40" height="40" as="geometry" />
        </mxCell>
        <mxCell id="gVXa1u4D3wWHI7BnuCao-67" value="" style="shape=waypoint;sketch=0;fillStyle=solid;size=6;pointerEvents=1;points=[];fillColor=#f8cecc;resizable=0;rotatable=0;perimeter=centerPerimeter;snapToPoint=1;strokeColor=#b85450;" vertex="1" parent="1">
          <mxGeometry x="280" y="430" width="40" height="40" as="geometry" />
        </mxCell>
        <mxCell id="gVXa1u4D3wWHI7BnuCao-69" value="release" style="text;html=1;align=center;verticalAlign=middle;resizable=0;points=[];autosize=1;strokeColor=none;fillColor=none;" vertex="1" parent="1">
          <mxGeometry x="240" y="430" width="60" height="20" as="geometry" />
        </mxCell>
        <mxCell id="gVXa1u4D3wWHI7BnuCao-72" value="" style="shape=waypoint;sketch=0;fillStyle=solid;size=6;pointerEvents=1;points=[];fillColor=#f8cecc;resizable=0;rotatable=0;perimeter=centerPerimeter;snapToPoint=1;strokeColor=#b85450;" vertex="1" parent="1">
          <mxGeometry x="180" y="340" width="40" height="40" as="geometry" />
        </mxCell>
        <mxCell id="gVXa1u4D3wWHI7BnuCao-75" value="" style="shape=image;html=1;verticalAlign=top;verticalLabelPosition=bottom;labelBackgroundColor=#ffffff;imageAspect=0;aspect=fixed;image=https://cdn0.iconfinder.com/data/icons/google-material-design-3-0/48/ic_delete_sweep_48px-128.png;imageBackground=none;" vertex="1" parent="1">
          <mxGeometry x="135" y="347.5" width="25" height="25" as="geometry" />
        </mxCell>
        <mxCell id="gVXa1u4D3wWHI7BnuCao-76" value="dev" style="text;html=1;align=center;verticalAlign=middle;resizable=0;points=[];autosize=1;strokeColor=none;fillColor=none;rotation=0;" vertex="1" parent="1">
          <mxGeometry x="160" y="340" width="40" height="20" as="geometry" />
        </mxCell>
        <mxCell id="gVXa1u4D3wWHI7BnuCao-79" value="" style="line;strokeWidth=2;html=1;fillColor=#fff2cc;strokeColor=#d6b656;" vertex="1" parent="1">
          <mxGeometry x="160" y="315" width="40" height="10" as="geometry" />
        </mxCell>
        <mxCell id="gVXa1u4D3wWHI7BnuCao-80" value="" style="shape=waypoint;sketch=0;fillStyle=solid;size=6;pointerEvents=1;points=[];fillColor=#d5e8d4;resizable=0;rotatable=0;perimeter=centerPerimeter;snapToPoint=1;strokeColor=#82b366;" vertex="1" parent="1">
          <mxGeometry x="180" y="300" width="40" height="40" as="geometry" />
        </mxCell>
        <mxCell id="gVXa1u4D3wWHI7BnuCao-83" value="" style="shape=image;html=1;verticalAlign=top;verticalLabelPosition=bottom;labelBackgroundColor=#ffffff;imageAspect=0;aspect=fixed;image=https://cdn0.iconfinder.com/data/icons/google-material-design-3-0/48/ic_delete_sweep_48px-128.png;imageBackground=none;" vertex="1" parent="1">
          <mxGeometry x="135" y="307.5" width="25" height="25" as="geometry" />
        </mxCell>
        <mxCell id="gVXa1u4D3wWHI7BnuCao-85" value="" style="line;strokeWidth=2;html=1;fillColor=#fff2cc;strokeColor=#d6b656;" vertex="1" parent="1">
          <mxGeometry x="160" y="275" width="40" height="10" as="geometry" />
        </mxCell>
        <mxCell id="gVXa1u4D3wWHI7BnuCao-87" value="" style="shape=waypoint;sketch=0;fillStyle=solid;size=6;pointerEvents=1;points=[];fillColor=#d5e8d4;resizable=0;rotatable=0;perimeter=centerPerimeter;snapToPoint=1;strokeColor=#82b366;" vertex="1" parent="1">
          <mxGeometry x="180" y="260" width="40" height="40" as="geometry" />
        </mxCell>
        <mxCell id="gVXa1u4D3wWHI7BnuCao-89" value="" style="shape=image;html=1;verticalAlign=top;verticalLabelPosition=bottom;labelBackgroundColor=#ffffff;imageAspect=0;aspect=fixed;image=https://cdn0.iconfinder.com/data/icons/google-material-design-3-0/48/ic_delete_sweep_48px-128.png;imageBackground=none;" vertex="1" parent="1">
          <mxGeometry x="135" y="267.5" width="25" height="25" as="geometry" />
        </mxCell>
        <mxCell id="gVXa1u4D3wWHI7BnuCao-91" value="" style="shape=waypoint;sketch=0;fillStyle=solid;size=6;pointerEvents=1;points=[];fillColor=#d5e8d4;resizable=0;rotatable=0;perimeter=centerPerimeter;snapToPoint=1;strokeColor=#82b366;" vertex="1" parent="1">
          <mxGeometry x="220" y="380" width="40" height="40" as="geometry" />
        </mxCell>
      </root>
    </mxGraphModel>
  </diagram>
</mxfile>
